<?xml version="1.0" encoding="UTF-8"?>
<svg version="1.1" xmlns="http://www.w3.org/2000/svg" width="254" height="173">
<path d="M0 0 C83.82 0 167.64 0 254 0 C254 57.09 254 114.18 254 173 C170.18 173 86.36 173 0 173 C0 115.91 0 58.82 0 0 Z " fill="#FDFEFD" transform="translate(0,0)"/>
<path d="M0 0 C0.82628906 -0.020625 1.65257813 -0.04125 2.50390625 -0.0625 C11.60781091 -0.11948845 18.82153213 2.84508871 26.6875 7.1875 C27.31205078 7.52201172 27.93660156 7.85652344 28.58007812 8.20117188 C32.53839973 10.34784786 36.37038614 12.57936246 40 15.25 C40 15.91 40 16.57 40 17.25 C32.21339733 20.09875708 24.69651316 20.43170331 16.5 20.4375 C15.58863281 20.44974609 14.67726563 20.46199219 13.73828125 20.47460938 C8.42141046 20.48611775 4.02850997 19.99754536 -1 18.25 C0.61268692 20.96224618 2.24901874 23.62352812 4 26.25 C4.5 28.625 4.5 28.625 4 31.25 C0.79944355 34.94294975 -1.52273106 36.58404059 -6.4375 36.9375 C-11.02776212 36.69631674 -13.5048229 34.83730911 -16.78515625 31.7578125 C-18 30.25 -18 30.25 -18 28.25 C-18.66 28.25 -19.32 28.25 -20 28.25 C-20 26.93 -20 25.61 -20 24.25 C-24.455 23.26 -24.455 23.26 -29 22.25 C-28.505 23.013125 -28.01 23.77625 -27.5 24.5625 C-26 27.25 -26 27.25 -26 30.25 C-26.66 30.25 -27.32 30.25 -28 30.25 C-28.94401042 28.4921875 -29.88802083 26.734375 -30.83203125 24.9765625 C-32.04763493 22.94497635 -32.04763493 22.94497635 -35 21.25 C-35.185625 23.1990625 -35.185625 23.1990625 -35.375 25.1875 C-35.5859375 27.40234375 -35.5859375 27.40234375 -36 29.25 C-36.99 29.745 -36.99 29.745 -38 30.25 C-38.495 24.805 -38.495 24.805 -39 19.25 C-43.04980342 18.85296045 -45.21559347 18.64208494 -48.5 21.1875 C-49.325 22.198125 -50.15 23.20875 -51 24.25 C-51.58007812 24.91644531 -52.16015625 25.58289063 -52.7578125 26.26953125 C-61.68873821 36.93806385 -63.19761856 49.61454397 -62 63.25 C-59.6155049 76.86747804 -53.02252614 88.80316122 -41.6875 96.90234375 C-32.67413856 102.66244504 -24.8378994 104.49198787 -14.25 104.5625 C-13.43345947 104.56813965 -12.61691895 104.5737793 -11.77563477 104.57958984 C-7.07467584 104.52280684 -3.47424198 103.78720302 1 102.25 C3.375 102.625 3.375 102.625 5 103.25 C-9.38045402 109.32043756 -22.69491817 111.89344993 -37.9296875 106.578125 C-51.94725098 100.51454792 -60.7020161 90.92715144 -67 77.25 C-72.88623844 62.06449412 -71.97302505 48.20678263 -66 33.25 C-64.05698152 29.7496739 -61.82739707 27.06615493 -59 24.25 C-58.23816406 23.44949219 -57.47632813 22.64898437 -56.69140625 21.82421875 C-50.75854239 15.7159993 -45.92113283 11.98502328 -37.9375 9.125 C-37.21755859 8.86074219 -36.49761719 8.59648438 -35.75585938 8.32421875 C-30.89894684 6.54740952 -26.9917311 5.12023726 -21.8125 5.1875 C-20.91144531 5.19652344 -20.01039062 5.20554687 -19.08203125 5.21484375 C-18.39496094 5.22644531 -17.70789063 5.23804688 -17 5.25 C-17 4.59 -17 3.93 -17 3.25 C-15.865625 2.940625 -14.73125 2.63125 -13.5625 2.3125 C-8.69421118 0.86055421 -5.30875057 0.03193233 0 0 Z " fill="#F5F6F5" transform="translate(91,44.75)"/>
<path d="M0 0 C0 4.08295632 -1.92903831 6.8677511 -3.8125 10.375 C-11.95064365 26.20946164 -13.41979477 42.44401996 -8.2421875 59.4765625 C-3.34822465 73.3581804 5.23700636 85.76562276 18.484375 92.859375 C27.65859077 97.01911258 35.77800703 99.17921388 45.8125 99.1875 C46.96588867 99.20586914 46.96588867 99.20586914 48.14257812 99.22460938 C53.44367489 99.23802987 57.90055583 98.44942708 63 97 C63.94746094 96.77699219 64.89492187 96.55398437 65.87109375 96.32421875 C71.57228206 94.90976868 76.24400738 93.02366262 81.22265625 89.890625 C81.80917969 89.59671875 82.39570312 89.3028125 83 89 C83.66 89.33 84.32 89.66 85 90 C70.00017069 102.81293831 50.33952758 108.22144385 31 107 C17.38334261 105.12949293 6.54294589 98.66287519 -3 89 C-3.56332031 88.45859375 -4.12664063 87.9171875 -4.70703125 87.359375 C-15.9545283 75.60737281 -19.55063158 58.98881973 -19.28515625 43.27734375 C-18.58595315 27.81406314 -11.29303723 10.62437055 0 0 Z " fill="#5DDEE0" transform="translate(21,64)"/>
<path d="M0 0 C0 0.33 0 0.66 0 1 C-1.50240234 1.38091797 -1.50240234 1.38091797 -3.03515625 1.76953125 C-4.37767927 2.11689735 -5.72012299 2.46457005 -7.0625 2.8125 C-8.04766602 3.0609668 -8.04766602 3.0609668 -9.05273438 3.31445312 C-13.5873142 4.4983582 -17.77744703 5.95058257 -22 8 C-22.33 8.66 -22.66 9.32 -23 10 C-22.236875 10.12375 -21.47375 10.2475 -20.6875 10.375 C-18 11 -18 11 -15 13 C-11.62233107 13.61257472 -8.24235358 14.01639779 -4.8359375 14.4375 C-3.90007812 14.623125 -2.96421875 14.80875 -2 15 C-1.505 15.99 -1.505 15.99 -1 17 C-4.3 16.67 -7.6 16.34 -11 16 C-10.505 16.763125 -10.01 17.52625 -9.5 18.3125 C-8 21 -8 21 -8 24 C-8.66 24 -9.32 24 -10 24 C-10.94401042 22.2421875 -11.88802083 20.484375 -12.83203125 18.7265625 C-14.04763493 16.69497635 -14.04763493 16.69497635 -17 15 C-17.185625 16.9490625 -17.185625 16.9490625 -17.375 18.9375 C-17.5859375 21.15234375 -17.5859375 21.15234375 -18 23 C-18.99 23.495 -18.99 23.495 -20 24 C-20.495 18.555 -20.495 18.555 -21 13 C-25.04980342 12.60296045 -27.21559347 12.39208494 -30.5 14.9375 C-31.325 15.948125 -32.15 16.95875 -33 18 C-33.58007812 18.66644531 -34.16015625 19.33289063 -34.7578125 20.01953125 C-43.68873821 30.68806385 -45.19761856 43.36454397 -44 57 C-41.6155049 70.61747804 -35.02252614 82.55316122 -23.6875 90.65234375 C-14.67413856 96.41244504 -6.8378994 98.24198787 3.75 98.3125 C4.56654053 98.31813965 5.38308105 98.3237793 6.22436523 98.32958984 C10.92532416 98.27280684 14.52575802 97.53720302 19 96 C21.375 96.375 21.375 96.375 23 97 C8.61954598 103.07043756 -4.69491817 105.64344993 -19.9296875 100.328125 C-33.94725098 94.26454792 -42.7020161 84.67715144 -49 71 C-54.88623844 55.81449412 -53.97302505 41.95678263 -48 27 C-46.05698152 23.4996739 -43.82739707 20.81615493 -41 18 C-40.23816406 17.19949219 -39.47632813 16.39898437 -38.69140625 15.57421875 C-27.70554495 4.26365219 -15.79826112 -0.27716248 0 0 Z " fill="#728849" transform="translate(73,51)"/>
<path d="M0 0 C-1.30925601 14.20542771 -11.19560734 28.27435273 -21.76953125 37.38671875 C-28.76546212 42.71740753 -34.05170994 45.43650195 -43 45 C-39.97829296 41.87828374 -36.79132698 39.07313309 -33.4375 36.3125 C-32.48746094 35.52488281 -31.53742188 34.73726562 -30.55859375 33.92578125 C-28 32 -28 32 -25 31 C-24.28910107 29.6897157 -23.62732534 28.35228885 -23 27 C-22.01534941 25.7620043 -20.99338976 24.55282297 -19.9375 23.375 C-18.33621517 21.5818742 -17.07671842 20.15343684 -16 18 C-16.66 18 -17.32 18 -18 18 C-18.26039062 18.58394531 -18.52078125 19.16789062 -18.7890625 19.76953125 C-23.14841832 27.79918343 -34.36071656 37.12023885 -43 40 C-43.66497399 32.18655557 -40.97479102 26.15236417 -36.125 20.0625 C-28.49214325 11.90662095 -19.22845726 5.64234297 -8.42578125 2.71875 C-5.09007494 1.73039257 -3.59565088 0 0 0 Z " fill="#A0C148" transform="translate(100,0)"/>
<path d="M0 0 C0.80373047 -0.01160156 1.60746094 -0.02320313 2.43554688 -0.03515625 C11.38301674 0.00803347 18.64416883 3.04469099 26.375 7.3125 C26.99955078 7.64701172 27.62410156 7.98152344 28.26757812 8.32617188 C32.22589973 10.47284786 36.05788614 12.70436246 39.6875 15.375 C39.6875 16.035 39.6875 16.695 39.6875 17.375 C27.20643336 21.94124389 9.10842583 23.06911577 -3.2109375 17.515625 C-3.90445313 17.13921875 -4.59796875 16.7628125 -5.3125 16.375 C-5.94414063 16.03984375 -6.57578125 15.7046875 -7.2265625 15.359375 C-10.40214543 13.46305534 -11.8170703 11.68286294 -13.3125 8.375 C-3.38342668 8.09961738 5.89210071 8.83846678 15.6875 10.375 C12.20506228 8.05337485 10.00679427 7.82735185 5.875 7.3125 C5.22007568 7.23016113 4.56515137 7.14782227 3.89038086 7.06298828 C-2.8257272 6.250718 -9.5596012 5.77039315 -16.3125 5.375 C-13.32336665 -0.6032667 -5.75194607 -0.08184587 0 0 Z " fill="#88A155" transform="translate(91.3125,44.625)"/>
<path d="M0 0 C2.4375 1.4375 2.4375 1.4375 4 4 C4.60320189 6.99538717 4.86965361 9.94989437 5 13 C5.66 13 6.32 13 7 13 C6.53395685 17.75364013 5.87250217 21.13317016 3 25 C-0.56038041 27.37358694 -1.80896839 27.73959381 -6 27 C-10.13205972 23.42270756 -12.72221516 19.7857851 -13.2734375 14.2578125 C-13.5448623 5.88540124 -13.5448623 5.88540124 -11 1.75 C-6.82934033 -0.68288481 -4.78973399 -0.68424771 0 0 Z " fill="#282D7B" transform="translate(71,77)"/>
<path d="M0 0 C3.37071659 2.11088613 4.65715061 4.72210681 5.6875 8.5625 C4.84030952 11.56617535 3.40477495 13.18873977 0.90625 15.0390625 C-2.73400326 16.8741082 -6.07403921 16.9593769 -10 16 C-14.13587805 13.74336635 -16.54100565 11.34998337 -18.0625 6.875 C-17.99762 3.89052009 -17.77043618 2.39008884 -16 0 C-10.76218333 -1.74593889 -5.35682958 -1.09282005 0 0 Z " fill="#2D327E" transform="translate(90,65)"/>
<path d="M0 0 C2.4375 1 2.4375 1 4 2 C4.31774533 6.6073073 4.42909733 9.1253016 2.375 13.3125 C-1.06727115 17.20770156 -4.05256749 18.73270534 -9.1875 19.4375 C-12 19 -12 19 -13.9375 17.5625 C-15.60657388 13.53708652 -15.3916136 10.11094019 -14 6 C-10.28682607 0.87874045 -6.35068013 -0.95859323 0 0 Z " fill="#2B307D" transform="translate(51,75)"/>
<path d="M0 0 C0 0.66 0 1.32 0 2 C-1.65 2 -3.3 2 -5 2 C-5 2.99 -5 3.98 -5 5 C-4.34 5 -3.68 5 -3 5 C-3 6.65 -3 8.3 -3 10 C0.465 9.505 0.465 9.505 4 9 C4.33 10.65 4.66 12.3 5 14 C1.72924117 14.0580476 -1.54138524 14.09361165 -4.8125 14.125 C-5.74126953 14.14175781 -6.67003906 14.15851563 -7.62695312 14.17578125 C-8.51962891 14.18222656 -9.41230469 14.18867188 -10.33203125 14.1953125 C-11.15421143 14.20578613 -11.9763916 14.21625977 -12.82348633 14.22705078 C-15 14 -15 14 -18 12 C-18.5625 8.6875 -18.5625 8.6875 -18 5 C-13.15428685 -1.32634772 -7.48544319 -0.54505654 0 0 Z " fill="#F8ECDE" transform="translate(138,138)"/>
<path d="M0 0 C0.33 0 0.66 0 1 0 C1.33 3.3 1.66 6.6 2 10 C2.33 7.03 2.66 4.06 3 1 C6.50714051 2.89575163 8.94461059 4.53829152 11 8 C11 8.99 11 9.98 11 11 C11.66 11 12.32 11 13 11 C13.33 10.34 13.66 9.68 14 9 C14 9.99 14 10.98 14 12 C14.99 12.33 15.98 12.66 17 13 C14.98177083 13.42317708 12.96354167 13.84635417 10.9453125 14.26953125 C8.62953451 14.92308838 8.62953451 14.92308838 7 18 C6.54227937 20.73872955 6.54227937 20.73872955 6.375 23.6875 C6.30023438 24.68136719 6.22546875 25.67523438 6.1484375 26.69921875 C6.09945312 27.45847656 6.05046875 28.21773437 6 29 C5.67 29 5.34 29 5 29 C5 27.02 5 25.04 5 23 C3.35 23.66 1.7 24.32 0 25 C0.309375 24.505 0.61875 24.01 0.9375 23.5 C2.41644382 20.02013219 2.62402851 16.75971491 3 13 C-1.455 12.01 -1.455 12.01 -6 11 C-6 10.67 -6 10.34 -6 10 C-4.02 10 -2.04 10 0 10 C0 6.7 0 3.4 0 0 Z " fill="#E6E9E6" transform="translate(52,64)"/>
<path d="M0 0 C0 0.33 0 0.66 0 1 C-1.50240234 1.38091797 -1.50240234 1.38091797 -3.03515625 1.76953125 C-4.37767927 2.11689735 -5.72012299 2.46457005 -7.0625 2.8125 C-8.04766602 3.0609668 -8.04766602 3.0609668 -9.05273438 3.31445312 C-13.5873142 4.4983582 -17.77744703 5.95058257 -22 8 C-22.33 8.66 -22.66 9.32 -23 10 C-22.236875 10.12375 -21.47375 10.2475 -20.6875 10.375 C-18 11 -18 11 -15 13 C-11.62233107 13.61257472 -8.24235358 14.01639779 -4.8359375 14.4375 C-3.90007812 14.623125 -2.96421875 14.80875 -2 15 C-1.67 15.66 -1.34 16.32 -1 17 C-4.3 16.67 -7.6 16.34 -11 16 C-10.505 16.763125 -10.01 17.52625 -9.5 18.3125 C-8 21 -8 21 -8 24 C-8.66 24 -9.32 24 -10 24 C-10.94401042 22.2421875 -11.88802083 20.484375 -12.83203125 18.7265625 C-14.04763493 16.69497635 -14.04763493 16.69497635 -17 15 C-17.12375 16.299375 -17.2475 17.59875 -17.375 18.9375 C-17.5859375 21.15234375 -17.5859375 21.15234375 -18 23 C-18.66 23.33 -19.32 23.66 -20 24 C-20.33 20.37 -20.66 16.74 -21 13 C-23.31 12.67 -25.62 12.34 -28 12 C-26.68 11.34 -25.36 10.68 -24 10 C-24 9.01 -24 8.02 -24 7 C-25.98 7.66 -27.96 8.32 -30 9 C-26.16307867 3.244618 -17.7360215 1.58308655 -11.1875 0.1875 C-7.44257486 -0.03278971 -3.75103611 -0.06580765 0 0 Z " fill="#8A9D69" transform="translate(73,51)"/>
<path d="M0 0 C0.66 0.33 1.32 0.66 2 1 C4.83400331 1.37474424 7.65766407 1.70474429 10.5 2 C11.31355957 2.08975098 12.12711914 2.17950195 12.96533203 2.27197266 C17.98919725 2.81993961 23.003113 3.26177148 28.0546875 3.4609375 C30.81332242 4.2253785 32.13305964 5.8986456 34 8 C33.030625 7.855625 32.06125 7.71125 31.0625 7.5625 C21.31143779 6.18665848 11.83987643 5.76447104 2 6 C2 5.34 2 4.68 2 4 C-2.95 4 -7.9 4 -13 4 C-9.68629 1.79086 -8.6553979 1.77518447 -4.8125 1.875 C-3.91144531 1.89304688 -3.01039062 1.91109375 -2.08203125 1.9296875 C-1.39496094 1.95289063 -0.70789063 1.97609375 0 2 C0 1.34 0 0.68 0 0 Z " fill="#DDE4CF" transform="translate(74,48)"/>
<path d="M0 0 C3.3 0 6.6 0 10 0 C10 0.33 10 0.66 10 1 C8.35 1 6.7 1 5 1 C5 1.99 5 2.98 5 4 C5.66 4 6.32 4 7 4 C7 5.65 7 7.3 7 9 C10.465 8.505 10.465 8.505 14 8 C14.33 9.65 14.66 11.3 15 13 C11.72924117 13.0580476 8.45861476 13.09361165 5.1875 13.125 C4.25873047 13.14175781 3.32996094 13.15851563 2.37304688 13.17578125 C1.48037109 13.18222656 0.58769531 13.18867188 -0.33203125 13.1953125 C-1.15421143 13.20578613 -1.9763916 13.21625977 -2.82348633 13.22705078 C-5 13 -5 13 -8 11 C-8.1875 7.875 -8.1875 7.875 -8 5 C-7.566875 5.928125 -7.566875 5.928125 -7.125 6.875 C-6.06279958 9.13325765 -6.06279958 9.13325765 -4 11 C-2.01178687 11.39764263 -0.01055661 11.73775349 2 12 C2 11.01 2 10.02 2 9 C0.35 8.67 -1.3 8.34 -3 8 C0.05263664 7.01879536 1.94736336 7.01879536 5 8 C5 7.34 5 6.68 5 6 C4.01 6 3.02 6 2 6 C2.66 4.35 3.32 2.7 4 1 C2.68 0.67 1.36 0.34 0 0 Z " fill="#E9C495" transform="translate(128,139)"/>
<path d="M0 0 C0.66 0 1.32 0 2 0 C-1.09028636 10.98768483 -13.62013614 19.63282158 -23 25 C-23 24.34 -23 23.68 -23 23 C-23.99 23 -24.98 23 -26 23 C-26 21.02 -26 19.04 -26 17 C-25.34 18.32 -24.68 19.64 -24 21 C-18.09390563 17.17149192 -12.6798895 13.00138859 -7.5 8.25 C-6.98405273 7.77844482 -6.46810547 7.30688965 -5.93652344 6.82104492 C-3.60684678 4.64985758 -1.77658538 2.66487808 0 0 Z " fill="#E2EBC5" transform="translate(82,18)"/>
<path d="M0 0 C0.99 0.495 0.99 0.495 2 1 C2.625 4.0625 2.625 4.0625 3 7 C3.66 7 4.32 7 5 7 C5.33 4.69 5.66 2.38 6 0 C9 1 9 1 10.1875 3.0625 C10.455625 3.701875 10.72375 4.34125 11 5 C11.66 3.35 12.32 1.7 13 0 C13.66 0 14.32 0 15 0 C14.74476126 1.62752231 14.47025506 3.25203196 14.1875 4.875 C14.03667969 5.77992187 13.88585937 6.68484375 13.73046875 7.6171875 C13 10 13 10 10 12 C9.01 10.02 8.02 8.04 7 6 C6.34 7.98 5.68 9.96 5 12 C4.34 12 3.68 12 3 12 C2.49440092 10.56445975 1.9957251 9.1264798 1.5 7.6875 C1.2215625 6.88699219 0.943125 6.08648437 0.65625 5.26171875 C0 3 0 3 0 0 Z " fill="#708E79" transform="translate(118,115)"/>
<path d="M0 0 C0.99 0 1.98 0 3 0 C3 4.62 3 9.24 3 14 C-0.99996286 12.66667905 -1.83782337 10.5042173 -4 7 C-4.33 9.31 -4.66 11.62 -5 14 C-5.66 14 -6.32 14 -7 14 C-7 9.71 -7 5.42 -7 1 C-6.34 1 -5.68 1 -5 1 C-3.61061923 2.96147874 -2.2739589 4.96166576 -1 7 C-0.67 4.69 -0.34 2.38 0 0 Z " fill="#89A290" transform="translate(71,114)"/>
<path d="M0 0 C0.80566406 0.01160156 1.61132812 0.02320313 2.44140625 0.03515625 C3.24449219 0.04417969 4.04757813 0.05320313 4.875 0.0625 C5.57753906 0.07410156 6.28007812 0.08570313 7.00390625 0.09765625 C7.66390625 0.09765625 8.32390625 0.09765625 9.00390625 0.09765625 C9.99390625 0.09765625 10.98390625 0.09765625 12.00390625 0.09765625 C11.65465045 3.24095848 11.16464892 4.89257077 9.19140625 7.41015625 C7.00390625 9.09765625 7.00390625 9.09765625 3.00390625 9.09765625 C3.00390625 8.43765625 3.00390625 7.77765625 3.00390625 7.09765625 C3.66390625 7.09765625 4.32390625 7.09765625 5.00390625 7.09765625 C5.00390625 5.11765625 5.00390625 3.13765625 5.00390625 1.09765625 C2.72868759 3.26453116 0.84596463 5.55386134 -0.99609375 8.09765625 C-0.99609375 6.44765625 -0.99609375 4.79765625 -0.99609375 3.09765625 C-1.98609375 4.41765625 -2.97609375 5.73765625 -3.99609375 7.09765625 C-2.96056821 0.14484189 -2.96056821 0.14484189 0 0 Z " fill="#E9C598" transform="translate(197.99609375,143.90234375)"/>
<path d="M0 0 C0.33 0.99 0.66 1.98 1 3 C0.2575 2.773125 -0.485 2.54625 -1.25 2.3125 C-4.05914993 1.70523302 -4.05914993 1.70523302 -6.3125 3.4375 C-6.869375 3.953125 -7.42625 4.46875 -8 5 C-5.525 5.99 -5.525 5.99 -3 7 C-3 7.33 -3 7.66 -3 8 C-4.65 8.33 -6.3 8.66 -8 9 C-4.535 10.485 -4.535 10.485 -1 12 C-1 12.66 -1 13.32 -1 14 C-1.60328125 13.79503906 -2.2065625 13.59007812 -2.828125 13.37890625 C-3.62734375 13.10949219 -4.4265625 12.84007812 -5.25 12.5625 C-6.03890625 12.29566406 -6.8278125 12.02882812 -7.640625 11.75390625 C-9.74821988 11.08045292 -11.84753973 10.50849405 -14 10 C-14.33 8.68 -14.66 7.36 -15 6 C-14.071875 5.566875 -13.14375 5.13375 -12.1875 4.6875 C-9.06678368 3.27320597 -9.06678368 3.27320597 -7.5 1.3125 C-5.17212465 -0.72439093 -2.96469798 -0.19764653 0 0 Z " fill="#EDD0AB" transform="translate(174,138)"/>
<path d="M0 0 C0 4.14409541 -1.97603648 7.05337431 -3.875 10.625 C-6.86036221 16.38285511 -9.07418982 21.51932876 -10 28 C-10.33 28 -10.66 28 -11 28 C-11 25.36 -11 22.72 -11 20 C-11.66 20 -12.32 20 -13 20 C-11.59569884 16.16945576 -9.81548751 12.87627843 -7.625 9.4375 C-6.74714844 8.04337891 -6.74714844 8.04337891 -5.8515625 6.62109375 C-4.08667407 4.12269683 -2.22845567 2.08610939 0 0 Z " fill="#78E3E5" transform="translate(21,64)"/>
<path d="M0 0 C0.33 0.66 0.66 1.32 1 2 C2.32 2 3.64 2 5 2 C4.47731534 4.76276177 3.89130413 7.3260876 3 10 C2.01 10 1.02 10 0 10 C0 9.34 0 8.68 0 8 C-0.763125 7.896875 -1.52625 7.79375 -2.3125 7.6875 C-5 7 -5 7 -8 4 C-5.36 2.68 -2.72 1.36 0 0 Z " fill="#F6E8D7" transform="translate(173,142)"/>
<path d="M0 0 C0.99 0 1.98 0 3 0 C3 2.64 3 5.28 3 8 C3.99 8 4.98 8 6 8 C6 5.36 6 2.72 6 0 C6.99 0 7.98 0 9 0 C9 3.3 9 6.6 9 10 C6.36 10 3.72 10 1 10 C-0.60725635 6.78548731 -0.05748185 3.56387464 0 0 Z " fill="#8DA494" transform="translate(167,118)"/>
<path d="M0 0 C0.94875 0.04125 1.8975 0.0825 2.875 0.125 C3.205 1.775 3.535 3.425 3.875 5.125 C1.895 5.125 -0.085 5.125 -2.125 5.125 C-2.125 6.115 -2.125 7.105 -2.125 8.125 C-0.475 8.125 1.175 8.125 2.875 8.125 C2.875 8.785 2.875 9.445 2.875 10.125 C0 10.3125 0 10.3125 -3.125 10.125 C-5.27415785 6.90126323 -5.50786803 5.85796326 -5.125 2.125 C-3.125 0.125 -3.125 0.125 0 0 Z " fill="#7C9784" transform="translate(80.125,117.875)"/>
<path d="M0 0 C2.375 -0.125 2.375 -0.125 5 0 C7 2 7 2 7.1953125 3.9453125 C7.13020833 5.96354167 7.06510417 7.98177083 7 10 C4.69 10 2.38 10 0 10 C-0.38218767 8.34385343 -0.71395102 6.67542976 -1 5 C0 4 0 4 2.5625 3.9375 C3.7690625 3.9684375 3.7690625 3.9684375 5 4 C5 3.34 5 2.68 5 2 C3.35 2 1.7 2 0 2 C0 1.34 0 0.68 0 0 Z " fill="#8AA291" transform="translate(152,118)"/>
<path d="M0 0 C0.66 0 1.32 0 2 0 C1.67 1.98 1.34 3.96 1 6 C1.99 6 2.98 6 4 6 C4.33 4.02 4.66 2.04 5 0 C7.64 0 10.28 0 13 0 C12.67 2.64 12.34 5.28 12 8 C11.34 8 10.68 8 10 8 C10.33 6.02 10.66 4.04 11 2 C9.68 2 8.36 2 7 2 C7 3.98 7 5.96 7 8 C4.03 8 1.06 8 -2 8 C-1.47731534 5.23723823 -0.89130413 2.6739124 0 0 Z " fill="#E9C598" transform="translate(180,144)"/>
<path d="M0 0 C2.5 0.25 2.5 0.25 4.5 2.25 C4.5 3.24 4.5 4.23 4.5 5.25 C2.19 5.25 -0.12 5.25 -2.5 5.25 C-1.83131686 8.36332248 -1.83131686 8.36332248 0.5625 9.4375 C1.201875 9.705625 1.84125 9.97375 2.5 10.25 C0.125 10.375 0.125 10.375 -2.5 10.25 C-4.5 8.25 -4.5 8.25 -4.75 5.25 C-4.43608753 1.48305032 -3.83691092 0.38369109 0 0 Z " fill="#819B89" transform="translate(90.5,117.75)"/>
<path d="M0 0 C1.32 0.33 2.64 0.66 4 1 C4.33 2.65 4.66 4.3 5 6 C3.02 6 1.04 6 -1 6 C-1 6.66 -1 7.32 -1 8 C0.65 8 2.3 8 4 8 C4 8.66 4 9.32 4 10 C1.125 10.1875 1.125 10.1875 -2 10 C-4.1519437 6.77208445 -4.20086443 5.71599191 -4 2 C-3.34 2 -2.68 2 -2 2 C-2 2.66 -2 3.32 -2 4 C-0.35 4 1.3 4 3 4 C2.01 2.68 1.02 1.36 0 0 Z " fill="#6F8D78" transform="translate(137,118)"/>
<path d="M0 0 C0.33 0.66 0.66 1.32 1 2 C1.598125 1.79375 2.19625 1.5875 2.8125 1.375 C5 1 5 1 8 3 C8 3.66 8 4.32 8 5 C6.35 5 4.7 5 3 5 C3 4.34 3 3.68 3 3 C2.34 3 1.68 3 1 3 C1.33 5.31 1.66 7.62 2 10 C1.01 10 0.02 10 -1 10 C-1.33 10.66 -1.66 11.32 -2 12 C-2.99 12 -3.98 12 -5 12 C-4.67 10.68 -4.34 9.36 -4 8 C-3.34 8 -2.68 8 -2 8 C-1.34 5.36 -0.68 2.72 0 0 Z " fill="#DAE2DD" transform="translate(132,117)"/>
<path d="M0 0 C0.66 0.33 1.32 0.66 2 1 C-5.51504482 7.37640166 -10.20121118 9.70977142 -20 9 C-17.38988587 7.25992391 -15.73080772 6.50307489 -12.8125 5.625 C-9.54107845 4.58798075 -6.5953967 3.35500008 -3.5625 1.75 C-2.386875 1.1725 -1.21125 0.595 0 0 Z " fill="#A1EBED" transform="translate(104,153)"/>
<path d="M0 0 C2.375 -0.125 2.375 -0.125 5 0 C7 2 7 2 7.1953125 3.9453125 C7.13020833 5.96354167 7.06510417 7.98177083 7 10 C6.34 9.67 5.68 9.34 5 9 C5 7.68 5 6.36 5 5 C4.01 5.33 3.02 5.66 2 6 C1.67 6.99 1.34 7.98 1 9 C1.99 9.33 2.98 9.66 4 10 C2.35 9.67 0.7 9.34 -1 9 C-1 7.68 -1 6.36 -1 5 C0.98 4.67 2.96 4.34 5 4 C5 3.34 5 2.68 5 2 C3.35 2 1.7 2 0 2 C0 1.34 0 0.68 0 0 Z " fill="#6F8D78" transform="translate(103,118)"/>
<path d="M0 0 C0.66 0 1.32 0 2 0 C2 1.98 2 3.96 2 6 C1.34 6 0.68 6 0 6 C0 6.66 0 7.32 0 8 C0.66 8.33 1.32 8.66 2 9 C2 9.99 2 10.98 2 12 C0.68 11.67 -0.64 11.34 -2 11 C-2.92817192 7.37169157 -3.26901295 5.58926645 -1.6875 2.125 C-0.8521875 1.073125 -0.8521875 1.073125 0 0 Z " fill="#F9EFE2" transform="translate(201,145)"/>
<path d="M0 0 C0.86625 0.37125 0.86625 0.37125 1.75 0.75 C0.67598892 3.66517292 -0.02810176 5.52810176 -2.25 7.75 C-3.24 7.75 -4.23 7.75 -5.25 7.75 C-6 6 -6 6 -6.25 3.75 C-3.25 -0.36111111 -3.25 -0.36111111 0 0 Z " fill="#F0D6B6" transform="translate(151.25,144.25)"/>
<path d="M0 0 C-1.875 3.875 -1.875 3.875 -3 5 C-5.33297433 5.04092937 -7.66705225 5.04241723 -10 5 C-7.62417533 -0.26075462 -5.61350876 -0.1220328 0 0 Z " fill="#FEFCFA" transform="translate(132,140)"/>
<path d="M0 0 C0.66 0.33 1.32 0.66 2 1 C0.35 2.65 -1.3 4.3 -3 6 C0.465 5.505 0.465 5.505 4 5 C3 7 3 7 -0.1875 8.125 C-3.63749602 8.91680237 -6.484293 9.1714979 -10 9 C-6.85281112 5.7317654 -3.50647501 2.8689341 0 0 Z " fill="#BAD17B" transform="translate(67,36)"/>
<path d="M0 0 C0.99 0.495 0.99 0.495 2 1 C2.625 4.0625 2.625 4.0625 3 7 C3.66 7 4.32 7 5 7 C5.33 5.35 5.66 3.7 6 2 C6.66 2 7.32 2 8 2 C7.01 5.3 6.02 8.6 5 12 C4.34 12 3.68 12 3 12 C2.49440092 10.56445975 1.9957251 9.1264798 1.5 7.6875 C1.2215625 6.88699219 0.943125 6.08648437 0.65625 5.26171875 C0 3 0 3 0 0 Z " fill="#688872" transform="translate(118,115)"/>
<path d="M0 0 C1.98 0 3.96 0 6 0 C6 0.66 6 1.32 6 2 C5.01 2 4.02 2 3 2 C3 4.64 3 7.28 3 10 C2.01 10 1.02 10 0 10 C0 6.7 0 3.4 0 0 Z " fill="#8DA594" transform="translate(144,118)"/>
<path d="M0 0 C0 0.33 0 0.66 0 1 C-2.4363189 1.67126129 -4.87388883 2.33716354 -7.3125 3 C-8.34793945 3.28617188 -8.34793945 3.28617188 -9.40429688 3.578125 C-12.35787949 4.37716184 -14.92559219 5 -18 5 C-18 4.01 -18 3.02 -18 2 C-11.88019467 0.59545452 -6.28260706 -0.23268915 0 0 Z " fill="#9DAB80" transform="translate(73,51)"/>
<path d="M0 0 C0 3.72207387 -1.17964568 5.46395589 -3 8.6875 C-3.8353125 10.17830078 -3.8353125 10.17830078 -4.6875 11.69921875 C-5.3371875 12.83810547 -5.3371875 12.83810547 -6 14 C-6.99 13.67 -7.98 13.34 -9 13 C-7.47987323 7.59510481 -3.72614782 4.01507372 0 0 Z " fill="#8CE7E9" transform="translate(21,64)"/>
<path d="M0 0 C0.99 0.495 0.99 0.495 2 1 C2 1.66 2 2.32 2 3 C4.97 3.495 4.97 3.495 8 4 C7.67 4.99 7.34 5.98 7 7 C5.00045254 7.04254356 2.99958364 7.04080783 1 7 C0 6 0 6 -0.0625 2.9375 C-0.041875 1.968125 -0.02125 0.99875 0 0 Z " fill="#F6E7D4" transform="translate(158,145)"/>
<path d="M0 0 C2.375 -0.1875 2.375 -0.1875 5 0 C5.66 0.99 6.32 1.98 7 3 C6.67 3.33 6.34 3.66 6 4 C9.3 4.66 12.6 5.32 16 6 C16 6.33 16 6.66 16 7 C11.94093514 7.49702835 8.44190436 7.86984448 4.84375 5.69921875 C3.10625165 4.20739127 1.49469727 2.7350023 0 1 C0 0.67 0 0.34 0 0 Z " fill="#5E629B" transform="translate(73,74)"/>
<path d="M0 0 C0.66 0.33 1.32 0.66 2 1 C-2.29 5.29 -6.58 9.58 -11 14 C-11 9.40845608 -8.09282279 7.18698368 -5 4 C-3.3719908 2.61973133 -1.71956118 1.26438322 0 0 Z " fill="#B2CB69" transform="translate(73,12)"/>
<path d="M0 0 C1.32 0 2.64 0 4 0 C3.67 2.64 3.34 5.28 3 8 C1.68 7.67 0.36 7.34 -1 7 C-1.625 4.625 -1.625 4.625 -2 2 C-1.34 1.34 -0.68 0.68 0 0 Z " fill="#F7EBDB" transform="translate(143,144)"/>
<path d="M0 0 C0.99 0 1.98 0 3 0 C2.69381595 3.67420866 2.24228216 4.78135513 -0.5625 7.3125 C-1.366875 7.869375 -2.17125 8.42625 -3 9 C-2.25 2.25 -2.25 2.25 0 0 Z " fill="#F3DFC6" transform="translate(207,144)"/>
<path d="M0 0 C0.66 0 1.32 0 2 0 C2.33 4.62 2.66 9.24 3 14 C2.01 13.67 1.02 13.34 0 13 C0 8.71 0 4.42 0 0 Z " fill="#6D8B76" transform="translate(162,114)"/>
<path d="M0 0 C0.66 0 1.32 0 2 0 C2.33 4.62 2.66 9.24 3 14 C2.01 13.67 1.02 13.34 0 13 C0 8.71 0 4.42 0 0 Z " fill="#6C8B76" transform="translate(97,114)"/>
<path d="M0 0 C0.66 0.33 1.32 0.66 2 1 C1.525625 1.495 1.05125 1.99 0.5625 2.5 C-1.62167907 5.99468651 -1.65913911 8.90966936 -2 13 C-2.33 13 -2.66 13 -3 13 C-3 11.02 -3 9.04 -3 7 C-3.66 7 -4.32 7 -5 7 C-3.75023244 3.34683329 -3.32901247 2.21934164 0 0 Z " fill="#4A4E8F" transform="translate(63,77)"/>
<path d="M0 0 C-3.83157261 2.85140287 -6.17045554 4.52211291 -11 4 C-11.99 4 -12.98 4 -14 4 C-11.97803833 1.97803833 -10.74135514 1.32448642 -8.125 0.3125 C-7.44695313 0.04050781 -6.76890625 -0.23148438 -6.0703125 -0.51171875 C-3.68892218 -1.07336741 -2.29569809 -0.76694846 0 0 Z " fill="#7D9257" transform="translate(57,55)"/>
<path d="M0 0 C2.29013653 3.4352048 2.17842973 4.985331 2 9 C2.66 9 3.32 9 4 9 C3.67 11.31 3.34 13.62 3 16 C0.14206684 13.14206684 0.59200059 10.85334416 0.375 6.875 C0.30023438 5.59367187 0.22546875 4.31234375 0.1484375 2.9921875 C0.09945312 2.00476563 0.05046875 1.01734375 0 0 Z " fill="#6D70A4" transform="translate(74,81)"/>
<path d="M0 0 C2.80045623 3.14591933 3.35261589 5.067064 3.1875 9.25 C3.16042969 10.14203125 3.13335937 11.0340625 3.10546875 11.953125 C3.07066406 12.62859375 3.03585938 13.3040625 3 14 C2.67 14 2.34 14 2 14 C2 12.02 2 10.04 2 8 C0.35 8.66 -1.3 9.32 -3 10 C-2.690625 9.46375 -2.38125 8.9275 -2.0625 8.375 C-0.82172561 5.6015043 -0.4090325 2.99957163 0 0 Z " fill="#B7B9D2" transform="translate(55,79)"/>
<path d="M0 0 C0.33 1.65 0.66 3.3 1 5 C-1.97 5 -4.94 5 -8 5 C-8 4.01 -8 3.02 -8 2 C-2.25 0 -2.25 0 0 0 Z " fill="#EED1AD" transform="translate(142,147)"/>
<path d="M0 0 C0.66 0.33 1.32 0.66 2 1 C0.19587357 4.26460973 -0.83394693 5.88929795 -4 8 C-4.99 8 -5.98 8 -7 8 C-5.61918777 3.8575633 -3.40174442 2.67796901 0 0 Z " fill="#E9F0D3" transform="translate(70,30)"/>
<path d="M0 0 C-1.44126786 3.36295835 -3.20592655 5.62927102 -6 8 C-6.99 8 -7.98 8 -9 8 C-7.70948419 4.12845257 -4.40863591 0 0 0 Z " fill="#515593" transform="translate(46,75)"/>
<path d="M0 0 C0.66 0.33 1.32 0.66 2 1 C-1.3 4.3 -4.6 7.6 -8 11 C-8 7.45459812 -7.40614728 6.93992636 -5.125 4.375 C-4.59132813 3.76398438 -4.05765625 3.15296875 -3.5078125 2.5234375 C-2 1 -2 1 0 0 Z " fill="#E1E5D7" transform="translate(45,63)"/>
<path d="M0 0 C0.66 0 1.32 0 2 0 C1.67 1.98 1.34 3.96 1 6 C1.99 6.33 2.98 6.66 4 7 C3 8 3 8 0.4375 8.0625 C-0.366875 8.041875 -1.17125 8.02125 -2 8 C-1.47731534 5.23723823 -0.89130413 2.6739124 0 0 Z " fill="#EDD0AB" transform="translate(180,144)"/>
<path d="M0 0 C0.28875 0.61875 0.5775 1.2375 0.875 1.875 C1.93720042 4.13325765 1.93720042 4.13325765 4 6 C5.98821313 6.39764263 7.98944339 6.73775349 10 7 C10.33 6.34 10.66 5.68 11 5 C11.66 5.66 12.32 6.32 13 7 C9.87293041 8.5635348 6.42017557 8.39958487 3 8 C2.01 7.34 1.02 6.68 0 6 C-0.1875 2.875 -0.1875 2.875 0 0 Z " fill="#EDD0AB" transform="translate(120,144)"/>
<path d="M0 0 C1.32 0 2.64 0 4 0 C3.67 1.98 3.34 3.96 3 6 C1.68 5.67 0.36 5.34 -1 5 C-0.67 3.35 -0.34 1.7 0 0 Z " fill="#F7EBDB" transform="translate(187,146)"/>
<path d="M0 0 C2.31 0 4.62 0 7 0 C6.67 1.65 6.34 3.3 6 5 C4.02 4.34 2.04 3.68 0 3 C0 2.01 0 1.02 0 0 Z " fill="#CED8D1" transform="translate(88,123)"/>
<path d="M0 0 C1.98 0.495 1.98 0.495 4 1 C3.34 2.65 2.68 4.3 2 6 C1.01 6 0.02 6 -1 6 C-0.67 4.02 -0.34 2.04 0 0 Z " fill="#F8EEE0" transform="translate(182,144)"/>
<path d="M0 0 C2.31 0 4.62 0 7 0 C7 0.33 7 0.66 7 1 C5.02 1 3.04 1 1 1 C1 1.66 1 2.32 1 3 C2.65 3 4.3 3 6 3 C6 3.66 6 4.32 6 5 C4.02 5 2.04 5 0 5 C-0.33 4.34 -0.66 3.68 -1 3 C-0.67 2.01 -0.34 1.02 0 0 Z " fill="#98AD9E" transform="translate(135,123)"/>
<path d="M0 0 C0.99 0.33 1.98 0.66 3 1 C3.73046875 2.84765625 3.73046875 2.84765625 4.1875 5.0625 C4.34605469 5.79597656 4.50460938 6.52945313 4.66796875 7.28515625 C4.83232422 8.13400391 4.83232422 8.13400391 5 9 C4.01 9 3.02 9 2 9 C0.875 4.25 0.875 4.25 2 2 C1.34 2 0.68 2 0 2 C0 1.34 0 0.68 0 0 Z " fill="#829C8A" transform="translate(124,115)"/>
<path d="M0 0 C2.875 0.3125 2.875 0.3125 6 1 C6.66 1.99 7.32 2.98 8 4 C4.7 3.67 1.4 3.34 -2 3 C-1.34 2.01 -0.68 1.02 0 0 Z " fill="#B4C493" transform="translate(100,52)"/>
<path d="M0 0 C0 0.66 0 1.32 0 2 C-3.9813783 3.3271261 -7.85045227 3.06915913 -12 3 C-7.87960164 0.25306776 -4.92304458 0 0 0 Z " fill="#8BE7E9" transform="translate(96,159)"/>
<path d="M0 0 C0.33 0 0.66 0 1 0 C1 4.29 1 8.58 1 13 C0.01 12.01 -0.98 11.02 -2 10 C-2 9.34 -2 8.68 -2 8 C-1.34 8 -0.68 8 0 8 C0 5.36 0 2.72 0 0 Z " fill="#61826B" transform="translate(72,115)"/>
<path d="M0 0 C0.99 0 1.98 0 3 0 C3.33 1.65 3.66 3.3 4 5 C2.35 4.67 0.7 4.34 -1 4 C-0.67 2.68 -0.34 1.36 0 0 Z " fill="#C7D2CA" transform="translate(105,123)"/>
<path d="M0 0 C2.475 0.99 2.475 0.99 5 2 C5 2.66 5 3.32 5 4 C3.35 4 1.7 4 0 4 C-0.33 3.01 -0.66 2.02 -1 1 C-0.67 0.67 -0.34 0.34 0 0 Z " fill="#B0C1B5" transform="translate(135,118)"/>
<path d="M0 0 C0.99 0.33 1.98 0.66 3 1 C2.67 1.99 2.34 2.98 2 4 C0.35 4 -1.3 4 -3 4 C-2.67 3.01 -2.34 2.02 -2 1 C-1.34 0.67 -0.68 0.34 0 0 Z " fill="#AFBFB4" transform="translate(81,118)"/>
<path d="M0 0 C0.99 0.33 1.98 0.66 3 1 C1.25 5.875 1.25 5.875 -1 7 C-0.67 4.69 -0.34 2.38 0 0 Z " fill="#45498C" transform="translate(51,84)"/>
</svg>
